/* XPM */
static char * xfi_xpm[] = {
"32 32 436 2",
"  	c None",
". 	c #000000",
"+ 	c #000200",
"@ 	c #020402",
"# 	c #000300",
"$ 	c #010301",
"% 	c #191B17",
"& 	c #989898",
"* 	c #D9DBD7",
"= 	c #D5D7D3",
"- 	c #D4D5D1",
"; 	c #CECECE",
"> 	c #CACCC7",
", 	c #C9CAC4",
"' 	c #C3C4C1",
") 	c #BFC0BC",
"! 	c #BFC1BC",
"~ 	c #BEBFBB",
"{ 	c #B8BAB7",
"] 	c #B9BBB8",
"^ 	c #BCBEBC",
"/ 	c #A0A0A0",
"( 	c #30342F",
"_ 	c #606161",
": 	c #FFFFFF",
"< 	c #FCFDF6",
"[ 	c #FBFCF5",
"} 	c #FCFCF6",
"| 	c #FCFDF5",
"1 	c #FCFCF4",
"2 	c #FFFFF8",
"3 	c #FFFFF9",
"4 	c #FFFFFD",
"5 	c #C8CAC6",
"6 	c #181A16",
"7 	c #848682",
"8 	c #DEDED8",
"9 	c #D0D0CC",
"0 	c #D4D3D0",
"a 	c #D5D5D2",
"b 	c #D7D6D4",
"c 	c #D7D7D3",
"d 	c #D6D5D1",
"e 	c #D6D5D0",
"f 	c #D7D5CE",
"g 	c #D7D4CD",
"h 	c #D7D4CC",
"i 	c #DDDBD0",
"j 	c #D8D5CD",
"k 	c #DCDAD0",
"l 	c #DBD9D1",
"m 	c #E0E1D9",
"n 	c #FCFCF7",
"o 	c #EDEFEB",
"p 	c #393B36",
"q 	c #878784",
"r 	c #576372",
"s 	c #0E2D55",
"t 	c #143764",
"u 	c #142C5E",
"v 	c #0F1D3B",
"w 	c #0F1D3A",
"x 	c #1B3662",
"y 	c #183964",
"z 	c #1D375D",
"A 	c #1D365B",
"B 	c #1D365A",
"C 	c #1D3559",
"D 	c #1C3559",
"E 	c #1A3459",
"F 	c #183259",
"G 	c #203857",
"H 	c #CBCDCA",
"I 	c #F1F2EB",
"J 	c #363833",
"K 	c #858680",
"L 	c #FFFFFC",
"M 	c #485970",
"N 	c #14458F",
"O 	c #114286",
"P 	c #000B20",
"Q 	c #161D01",
"R 	c #131500",
"S 	c #001537",
"T 	c #164E96",
"U 	c #2A58A0",
"V 	c #2A589D",
"W 	c #2A579B",
"X 	c #2A579A",
"Y 	c #29579A",
"Z 	c #27559A",
"` 	c #23529A",
" .	c #193D73",
"..	c #F1F2EA",
"+.	c #353732",
"@.	c #858681",
"#.	c #53627A",
"$.	c #2E5091",
"%.	c #0A1626",
"&.	c #706B22",
"*.	c #EDE99D",
"=.	c #DAD986",
"-.	c #403E06",
";.	c #162D4D",
">.	c #4E70AB",
",.	c #4F70A8",
"'.	c #4F70A4",
").	c #4E6FA3",
"!.	c #4F70A5",
"~.	c #4C6EA4",
"{.	c #486BA4",
"].	c #304C79",
"^.	c #C4C5C1",
"/.	c #F2F2EA",
"(.	c #858781",
"_.	c #5C6877",
":.	c #335791",
"<.	c #131600",
"[.	c #E5E59B",
"}.	c #ACAC59",
"|.	c #0E1510",
"1.	c #5676AA",
"2.	c #5E80B5",
"3.	c #5E7FB3",
"4.	c #5E7FB2",
"5.	c #5F80B3",
"6.	c #5F81B5",
"7.	c #5978A6",
"8.	c #5F81B6",
"9.	c #5D7FB5",
"0.	c #5A7FB6",
"a.	c #405D85",
"b.	c #636A77",
"c.	c #506A97",
"d.	c #101300",
"e.	c #CDCD81",
"f.	c #949441",
"g.	c #161F1E",
"h.	c #6A86B6",
"i.	c #768EB9",
"j.	c #778EB7",
"k.	c #778EB8",
"l.	c #7990BA",
"m.	c #6E81A4",
"n.	c #56616C",
"o.	c #637187",
"p.	c #7790BC",
"q.	c #738CBA",
"r.	c #546B8E",
"s.	c #C2C4C0",
"t.	c #F1F1E9",
"u.	c #353632",
"v.	c #848580",
"w.	c #66717D",
"x.	c #7186AC",
"y.	c #323C4F",
"z.	c #383800",
"A.	c #ABA957",
"B.	c #999543",
"C.	c #1E1D00",
"D.	c #4D5A70",
"E.	c #8A9FC7",
"F.	c #8B9FC4",
"G.	c #8BA0C4",
"H.	c #8DA1C6",
"I.	c #889CBF",
"J.	c #5F6469",
"K.	c #60646A",
"L.	c #4D4A45",
"M.	c #7E90AD",
"N.	c #8CA1CC",
"O.	c #637494",
"P.	c #C0C2BF",
"Q.	c #F0F0E8",
"R.	c #343631",
"S.	c #6F737E",
"T.	c #8B9ABF",
"U.	c #94A5CB",
"V.	c #404B5B",
"W.	c #262724",
"X.	c #262623",
"Y.	c #576077",
"Z.	c #9FADD3",
"`.	c #A1AFD1",
" +	c #A1AFD0",
".+	c #A3B0D1",
"++	c #A5B3D4",
"@+	c #747E8F",
"#+	c #4C4B47",
"$+	c #767A80",
"%+	c #433F35",
"&+	c #77808F",
"*+	c #A5B6DB",
"=+	c #74839E",
"-+	c #C6C4C0",
";+	c #EFF0E8",
">+	c #838580",
",+	c #FFFFFE",
"'+	c #6E737C",
")+	c #9CA8C6",
"!+	c #B3C2E3",
"~+	c #B4C3E4",
"{+	c #AFBBDA",
"]+	c #AEBAD9",
"^+	c #B4C2E1",
"/+	c #B2BEDC",
"(+	c #B2BEDA",
"_+	c #B5C3E0",
":+	c #A0A9C0",
"<+	c #524E45",
"[+	c #545149",
"}+	c #838893",
"|+	c #4A473E",
"1+	c #8E93A5",
"2+	c #B8C6E8",
"3+	c #8390A6",
"4+	c #C7CAC6",
"5+	c #666F79",
"6+	c #7794BB",
"7+	c #8FACD8",
"8+	c #8FACD6",
"9+	c #8FABD5",
"0+	c #8FABD4",
"a+	c #91ABD1",
"b+	c #91ABD0",
"c+	c #91ACD1",
"d+	c #8FAACF",
"e+	c #677481",
"f+	c #4F514D",
"g+	c #595E60",
"h+	c #595F61",
"i+	c #575D5F",
"j+	c #8FA6CD",
"k+	c #8FADDB",
"l+	c #7084A5",
"m+	c #CACCC8",
"n+	c #5F6974",
"o+	c #5877A6",
"p+	c #6A8BC0",
"q+	c #6C8BBD",
"r+	c #6C8CBC",
"s+	c #6C8BBC",
"t+	c #6C8BBB",
"u+	c #6C8ABB",
"v+	c #6D88B3",
"w+	c #5A6F91",
"x+	c #50627D",
"y+	c #4F627B",
"z+	c #4B5A6F",
"A+	c #4E607A",
"B+	c #6784AF",
"C+	c #6F91C6",
"D+	c #556C8F",
"E+	c #F0F1E9",
"F+	c #353631",
"G+	c #5A6069",
"H+	c #3D5B8E",
"I+	c #5273A3",
"J+	c #4B6EA3",
"K+	c #4C6EA3",
"L+	c #4C6EA2",
"M+	c #4D6FA4",
"N+	c #4E70A6",
"O+	c #4F72A9",
"P+	c #48679B",
"Q+	c #3C5881",
"R+	c #3C5882",
"S+	c #3B5781",
"T+	c #354D75",
"U+	c #456499",
"V+	c #415A81",
"W+	c #CCCECA",
"X+	c #EEEEE6",
"Y+	c #505868",
"Z+	c #1E3B76",
"`+	c #2F4C8B",
" @	c #334F8C",
".@	c #34508C",
"+@	c #35508C",
"@@	c #2F538D",
"#@	c #30538E",
"$@	c #30548E",
"%@	c #30548F",
"&@	c #36528F",
"*@	c #365391",
"=@	c #375492",
"-@	c #36568F",
";@	c #25487A",
">@	c #224073",
",@	c #193162",
"'@	c #1F3C77",
")@	c #27416E",
"!@	c #C9CBC8",
"~@	c #EDEEE6",
"{@	c #82837E",
"]@	c #545C67",
"^@	c #041D49",
"/@	c #0B295A",
"(@	c #0F2C5B",
"_@	c #122E5C",
":@	c #122F5D",
"<@	c #132F5D",
"[@	c #132F5E",
"}@	c #1B315A",
"|@	c #1B315B",
"1@	c #1A305B",
"2@	c #182E59",
"3@	c #132349",
"4@	c #102754",
"5@	c #172C4F",
"6@	c #CFCFCB",
"7@	c #EAECE5",
"8@	c #333530",
"9@	c #7E807B",
"0@	c #D5D5CF",
"a@	c #B6B4B2",
"b@	c #B9BBB7",
"c@	c #B9B8AE",
"d@	c #B7B2AD",
"e@	c #BEBCB2",
"f@	c #C3C4BE",
"g@	c #BAB5AF",
"h@	c #CAC7C0",
"i@	c #BEBDB3",
"j@	c #ACABA4",
"k@	c #B2B0A7",
"l@	c #C7C5BE",
"m@	c #C6C3BD",
"n@	c #B9B8AF",
"o@	c #C2BFB9",
"p@	c #BEBCB7",
"q@	c #BAB9B5",
"r@	c #C5C5C1",
"s@	c #DFE0DC",
"t@	c #313330",
"u@	c #7C7E7A",
"v@	c #F9FAF4",
"w@	c #F8F9F3",
"x@	c #FFFFFA",
"y@	c #D3D3CC",
"z@	c #676664",
"A@	c #F1F1EB",
"B@	c #B9B9B2",
"C@	c #716C6C",
"D@	c #EBEBE3",
"E@	c #8B8885",
"F@	c #72716B",
"G@	c #95938F",
"H@	c #A7A7A1",
"I@	c #72716E",
"J@	c #DCDEDA",
"K@	c #31332F",
"L@	c #7C7E7B",
"M@	c #EFF1EC",
"N@	c #EFF1EB",
"O@	c #F6F8F3",
"P@	c #D3D5D0",
"Q@	c #1D2120",
"R@	c #808182",
"S@	c #555656",
"T@	c #C0C0BF",
"U@	c #9C9E9B",
"V@	c #2F2C2F",
"W@	c #CDCFCC",
"X@	c #D6D8D8",
"Y@	c #3B3B3A",
"Z@	c #727271",
"`@	c #F8FAF4",
" #	c #F6F9F3",
".#	c #F9FCF6",
"+#	c #DCDEDB",
"@#	c #313331",
"##	c #80827F",
"$#	c #FAFCF7",
"%#	c #F8FAF6",
"&#	c #F6F7F2",
"*#	c #FCFEFB",
"=#	c #646566",
"-#	c #CCCECD",
";#	c #666668",
">#	c #414242",
",#	c #959695",
"'#	c #A4A6A4",
")#	c #FDFFFB",
"!#	c #464846",
"~#	c #C0C2C1",
"{#	c #F9FCF7",
"]#	c #F8FBF6",
"^#	c #E0E2DF",
"/#	c #353735",
"(#	c #545656",
"_#	c #C1C2C3",
":#	c #919093",
"<#	c #8E8E8E",
"[#	c #939396",
"}#	c #929498",
"|#	c #B8BAB8",
"1#	c #FEFFFF",
"2#	c #535557",
"3#	c #EBEDEB",
"4#	c #BBBDBB",
"5#	c #191B19",
"6#	c #030602",
"7#	c #686A68",
"8#	c #C2C4C2",
"9#	c #BDBFBC",
"0#	c #8B8C8C",
"a#	c #BFC1BE",
"b#	c #D7D9D5",
"c#	c #DCDEDD",
"d#	c #A8A9A8",
"e#	c #B2B3B2",
"f#	c #D8DAD9",
"g#	c #D2D4D0",
"h#	c #D1D4D0",
"i#	c #A8AAA9",
"j#	c #BEC1BE",
"k#	c #C4C6C2",
"l#	c #C1C3BE",
"m#	c #BBBDBA",
"n#	c #ACAFAB",
"o#	c #5F6061",
"p#	c #010300",
"q#	c #020502",
"r#	c #000401",
"s#	c #040604",
"t#	c #040704",
"u#	c #0F120F",
"v#	c #171917",
"w#	c #1C1E1C",
"x#	c #1B1D1B",
"y#	c #1A1D1A",
"z#	c #191C19",
"A#	c #181B18",
"B#	c #171A17",
"C#	c #1F221F",
"                                                                ",
"                                                                ",
"                                                                ",
"                                                                ",
"          . + @ # + + + # # @ @ @ @ @ @ @ $ . . + .             ",
"        % & * = - - - ; ; > , , ' ' ) ! ! ~ { ] ^ / (           ",
"      . _ : : < [ } < < < | 1 1 2 2 2 2 2 2 2 3 4 : 5 6         ",
"      . 7 : 8 9 0 a b c d e f g h i j i i i k l m n o p         ",
"      . q : r s t u v w x y z A B C C C C D E F G H I J         ",
"      . K L M N O P Q R S T U V W X X X X Y Z `  .' ..+.        ",
"      . @.: #.$.%.&.*.=.-.;.>.,.'.).'.'.!.!.~.{.].^./.+.        ",
"      . (.: _.:.<.[.: : }.|.1.2.3.4.5.6.7.8.9.0.a.^./.+.        ",
"      . @.: b.c.d.e.: : f.g.h.i.j.k.l.m.n.o.p.q.r.s.t.u.        ",
"      . v.: w.x.y.z.A.B.C.D.E.F.G.H.I.J.K.L.M.N.O.P.Q.R.        ",
"      . v.: S.T.U.V.W.X.Y.Z.`. +.+++@+#+$+%+&+*+=+-+;+R.        ",
"      . >+,+'+)+!+~+{+]+^+/+(+(+_+:+<+[+}+|+1+2+3+4+;+R.        ",
"      . v.,+5+6+7+8+8+9+0+a+b+c+d+e+f+g+h+i+j+k+l+m+Q.R.        ",
"      . v.: n+o+p+q+r+s+t+u+u+s+v+w+x+y+z+A+B+C+D+> E+F+        ",
"      . v.: G+H+I+J+K+L+L+L+K+M+N+O+P+Q+R+S+T+U+V+W+X+F+        ",
"      . >+,+Y+Z+`+ @.@+@@@#@$@%@&@*@=@-@;@>@,@'@)@!@~@R.        ",
"      . {@4 ]@^@/@(@_@:@<@[@[@[@}@|@|@1@1@2@3@4@5@6@7@8@        ",
"      . 9@: 0@a@b@c@d@e@f@g@h@i@j@k@l@m@n@o@p@q@r@< s@t@        ",
"      . u@: v@w@x@y@z@A@B@C@D@E@F@G@: H@I@: L x@4 : J@K@        ",
"      . L@: M@N@O@P@Q@R@S@T@U@V@W@X@: Y@Z@L `@ #.#: +#@#        ",
"      . ##: $#%#&#*#=#. -#: ;#>#,#'#)#!#~#,+{#]#: : ^#/#        ",
"        (#: : : : _#:#<#[#: }#|#: : 1#2#3#: : : : : 4#5#        ",
"        6#7#4#8#9#0#a#b#s.c#d#e#f#g#h#i#j#k#l#^ m#n#o#          ",
"            p#q#r#s#t#u#v#w#x#y#z#5#5#5#A#B#v#B#y#C#            ",
"                                                                ",
"                                                                ",
"                                                                ",
"                                                                "};
