/* XPM */
static char * xfp_xpm[] = {
"32 32 466 2",
"  	c None",
". 	c #000000",
"+ 	c #070607",
"@ 	c #404437",
"# 	c #747662",
"$ 	c #22251F",
"% 	c #1A1E18",
"& 	c #41443D",
"* 	c #7D7D6E",
"= 	c #969879",
"- 	c #A1A685",
"; 	c #8D9275",
"> 	c #181A16",
", 	c #0E0F0C",
"' 	c #7E7F7D",
") 	c #C9CAC1",
"! 	c #CACBC3",
"~ 	c #BEC0B6",
"{ 	c #9DA08E",
"] 	c #929482",
"^ 	c #868773",
"/ 	c #858572",
"( 	c #8D8F72",
"_ 	c #9EA383",
": 	c #898E72",
"< 	c #111311",
"[ 	c #474A42",
"} 	c #A5A6A2",
"| 	c #FFFFFF",
"1 	c #E2E3D8",
"2 	c #949887",
"3 	c #757864",
"4 	c #73765C",
"5 	c #777C64",
"6 	c #7A7F66",
"7 	c #87886D",
"8 	c #94987A",
"9 	c #A8AE8D",
"0 	c #888D72",
"a 	c #0C0C0A",
"b 	c #1F2322",
"c 	c #767774",
"d 	c #D0D3C8",
"e 	c #E4E6E0",
"f 	c #8B8F7E",
"g 	c #5C5E48",
"h 	c #5E604A",
"i 	c #6A6D59",
"j 	c #717462",
"k 	c #787D64",
"l 	c #7E816A",
"m 	c #83856A",
"n 	c #8E8F70",
"o 	c #9A9E81",
"p 	c #B5BB9C",
"q 	c #828570",
"r 	c #111111",
"s 	c #050603",
"t 	c #4D4D48",
"u 	c #A3A4A0",
"v 	c #F2F1EA",
"w 	c #989A8C",
"x 	c #50523E",
"y 	c #494C36",
"z 	c #5B5D48",
"A 	c #686C57",
"B 	c #707461",
"C 	c #7D7D6B",
"D 	c #7E826A",
"E 	c #868B6D",
"F 	c #8D9274",
"G 	c #9B9F83",
"H 	c #B1B798",
"I 	c #C7CDAA",
"J 	c #656951",
"K 	c #888B88",
"L 	c #C9CBC1",
"M 	c #D5D5D1",
"N 	c #50533C",
"O 	c #464933",
"P 	c #595B46",
"Q 	c #6D7156",
"R 	c #717461",
"S 	c #797E64",
"T 	c #85876A",
"U 	c #8A8D71",
"V 	c #898C71",
"W 	c #8E9273",
"X 	c #999D80",
"Y 	c #9FA585",
"Z 	c #949879",
"` 	c #8F9174",
" .	c #010301",
"..	c #8B8D82",
"+.	c #EFF3DF",
"@.	c #C0C2B9",
"#.	c #9A9C92",
"$.	c #83857A",
"%.	c #929390",
"&.	c #AAAFAE",
"*.	c #71736A",
"=.	c #5F634E",
"-.	c #BBBDB7",
";.	c #686B57",
">.	c #5F604B",
",.	c #6F725F",
"'.	c #7D7D6A",
").	c #858769",
"!.	c #8E906D",
"~.	c #929574",
"{.	c #999C75",
"].	c #9EA381",
"^.	c #979A7B",
"/.	c #797D63",
"(.	c #6B6B57",
"_.	c #7F836A",
":.	c #8B9074",
"<.	c #76736A",
"[.	c #FFFFF8",
"}.	c #EAEFDD",
"|.	c #BFC1B1",
"1.	c #888A7C",
"2.	c #43452E",
"3.	c #27290F",
"4.	c #22240B",
"5.	c #282C16",
"6.	c #828676",
"7.	c #C4C5B9",
"8.	c #767763",
"9.	c #71755B",
"0.	c #767A5E",
"a.	c #55593B",
"b.	c #242518",
"c.	c #2A2A21",
"d.	c #2B2A22",
"e.	c #2A2A18",
"f.	c #2C2C1B",
"g.	c #5C5D48",
"h.	c #75765B",
"i.	c #888D6D",
"j.	c #93967B",
"k.	c #53534F",
"l.	c #FFFFF9",
"m.	c #F6FBE8",
"n.	c #EBEFDD",
"o.	c #EFF3E1",
"p.	c #F4F9E7",
"q.	c #F3F8E6",
"r.	c #E4E0D0",
"s.	c #ACAC9A",
"t.	c #898E74",
"u.	c #6B7152",
"v.	c #A2A68C",
"w.	c #CFD1BB",
"x.	c #707458",
"y.	c #151708",
"z.	c #262F35",
"A.	c #6B7B8F",
"B.	c #A8BBD5",
"C.	c #A5B9D7",
"D.	c #798BA8",
"E.	c #2C3645",
"F.	c #0D0D0B",
"G.	c #5A5C3E",
"H.	c #969976",
"I.	c #9FA182",
"J.	c #000200",
"K.	c #6B6B63",
"L.	c #FFFFF3",
"M.	c #F5F9E7",
"N.	c #E3E7D7",
"O.	c #DEE3D1",
"P.	c #F2F6E5",
"Q.	c #FFFFF0",
"R.	c #F6FBEA",
"S.	c #E3E7D2",
"T.	c #CBCFB5",
"U.	c #B8BC9E",
"V.	c #373523",
"W.	c #5C626C",
"X.	c #E0F0FF",
"Y.	c #E0EFFF",
"Z.	c #CAD9ED",
"`.	c #BED1EA",
" +	c #BBCDE5",
".+	c #ABC6EC",
"++	c #617693",
"@+	c #1C1C1B",
"#+	c #7B7D5D",
"$+	c #ACB08D",
"%+	c #716D65",
"&+	c #FCFFEE",
"*+	c #DFE4D2",
"=+	c #DADECD",
"-+	c #DBDFCE",
";+	c #DBE0CF",
">+	c #DFE4D3",
",+	c #E4E8D9",
"'+	c #ECF0DF",
")+	c #F9FDEC",
"!+	c #909183",
"~+	c #5E6365",
"{+	c #E9F5FF",
"]+	c #C3D3E6",
"^+	c #B4C5DA",
"/+	c #ACBDD2",
"(+	c #A7BAD0",
"_+	c #9FB7D7",
":+	c #9CBADF",
"<+	c #576D8C",
"[+	c #2D2B1F",
"}+	c #A8AB85",
"|+	c #040401",
"1+	c #494B45",
"2+	c #FBFEEF",
"3+	c #F5F9E8",
"4+	c #D9DDCC",
"5+	c #D9DECC",
"6+	c #E0E4D3",
"7+	c #F0F4E3",
"8+	c #EDF0D9",
"9+	c #353730",
"0+	c #D6DBDD",
"a+	c #D6E0EC",
"b+	c #BBC6D7",
"c+	c #ADBFD4",
"d+	c #A8B8CA",
"e+	c #9EAFC6",
"f+	c #98ABC6",
"g+	c #9AB0CC",
"h+	c #8CABD4",
"i+	c #313F46",
"j+	c #7B7A5F",
"k+	c #0A0806",
"l+	c #11110C",
"m+	c #F6FBE9",
"n+	c #FBFFED",
"o+	c #E1E5D4",
"p+	c #E2E6D6",
"q+	c #F1F5E3",
"r+	c #B1B19F",
"s+	c #363632",
"t+	c #FEFEFD",
"u+	c #F4FCFF",
"v+	c #CFD9E3",
"w+	c #B8C4D4",
"x+	c #ABBDD2",
"y+	c #A7B6C8",
"z+	c #9DADC4",
"A+	c #93A8C2",
"B+	c #93A8C5",
"C+	c #96B6E0",
"D+	c #546D89",
"E+	c #5A5741",
"F+	c #12110B",
"G+	c #000100",
"H+	c #FAFEED",
"I+	c #EDF1DF",
"J+	c #DFE3D2",
"K+	c #DBDFCD",
"L+	c #949581",
"M+	c #575755",
"N+	c #F3FBFF",
"O+	c #CDD7E1",
"P+	c #B7C3D3",
"Q+	c #AABCD2",
"R+	c #A6B6C7",
"S+	c #9CADC3",
"T+	c #93A7C1",
"U+	c #93A8C4",
"V+	c #96B5DE",
"W+	c #5B708C",
"X+	c #494834",
"Y+	c #13110B",
"Z+	c #040504",
"`+	c #FFFFF1",
" @	c #FFFFFA",
".@	c #F7FBE9",
"+@	c #F0F4E2",
"@@	c #EAEEDC",
"#@	c #E4E8D8",
"$@	c #F1F6E4",
"%@	c #A3A394",
"&@	c #413F3E",
"*@	c #FCFFFF",
"=@	c #F3FCFF",
"-@	c #CED8E2",
";@	c #B8C4D3",
">@	c #ABBCD2",
",@	c #A7B6C7",
"'@	c #9DADC3",
")@	c #96B6DE",
"!@	c #536D88",
"~@	c #5A5740",
"{@	c #14130F",
"]@	c #090908",
"^@	c #DBDDCB",
"/@	c #797B71",
"(@	c #E6EBD8",
"_@	c #E4E8D6",
":@	c #F7FCE9",
"<@	c #E6EADA",
"[@	c #EEF2E0",
"}@	c #D6D9C5",
"|@	c #2B2926",
"1@	c #ECEBE9",
"2@	c #FEFFFF",
"3@	c #D0DAE4",
"4@	c #B9C5D5",
"5@	c #ACBED3",
"6@	c #A8B7C9",
"7@	c #9EAEC5",
"8@	c #94A9C4",
"9@	c #94A9C6",
"0@	c #8FAFD7",
"a@	c #3C4F58",
"b@	c #777658",
"c@	c #12120D",
"d@	c #060804",
"e@	c #E0E2D0",
"f@	c #484A44",
"g@	c #7F8077",
"h@	c #3D3D3B",
"i@	c #91918B",
"j@	c #BFC2B5",
"k@	c #AEB0A9",
"l@	c #EBEFDF",
"m@	c #F3F7E4",
"n@	c #6E6F64",
"o@	c #7C8081",
"p@	c #DDEAFA",
"q@	c #C1D0E4",
"r@	c #AFC1D7",
"s@	c #ACBCD1",
"t@	c #A0B2C9",
"u@	c #9EB6D5",
"v@	c #9BB8DC",
"w@	c #607E9C",
"x@	c #070600",
"y@	c #6D6E52",
"z@	c #0C0B06",
"A@	c #7A7B72",
"B@	c #393A34",
"C@	c #5D5D56",
"D@	c #D9DCCB",
"E@	c #969690",
"F@	c #20221D",
"G@	c #707268",
"H@	c #A9A9A3",
"I@	c #D2D5C4",
"J@	c #C7C9B9",
"K@	c #F6FAE7",
"L@	c #DEE0CD",
"M@	c #45453F",
"N@	c #9CA3AF",
"O@	c #EBF9FF",
"P@	c #D7E6FD",
"Q@	c #C3D3EB",
"R@	c #B7C9E1",
"S@	c #AFC7E6",
"T@	c #B3CBEA",
"U@	c #778FAE",
"V@	c #262A32",
"W@	c #B1AFA7",
"X@	c #676662",
"Y@	c #B8B9B4",
"Z@	c #F8F9F1",
"`@	c #AFB1A6",
" #	c #FFFFF7",
".#	c #212320",
"+#	c #575751",
"@#	c #949689",
"##	c #E2E4D2",
"$#	c #66685F",
"%#	c #0E0E08",
"&#	c #9B9C90",
"*#	c #F8FCE9",
"=#	c #D5D4BF",
"-#	c #303129",
";#	c #4F5865",
">#	c #99A8BE",
",#	c #BACDE8",
"'#	c #BED1EB",
")#	c #607087",
"!#	c #000101",
"~#	c #827F7B",
"{#	c #717270",
"]#	c #63655D",
"^#	c #EDEEE1",
"/#	c #F9FDE9",
"(#	c #9EA092",
"_#	c #FFFFFD",
":#	c #DCE0CE",
"<#	c #A9AC9E",
"[#	c #262722",
"}#	c #8B8D84",
"|#	c #1B1D17",
"1#	c #BFC2B4",
"2#	c #909478",
"3#	c #28280D",
"4#	c #1B1A11",
"5#	c #282E32",
"6#	c #31393E",
"7#	c #393932",
"8#	c #55563A",
"9#	c #414022",
"0#	c #2A2721",
"a#	c #CFD0CE",
"b#	c #868684",
"c#	c #0B0C0A",
"d#	c #3F413D",
"e#	c #A2A393",
"f#	c #EAEAD5",
"g#	c #606059",
"h#	c #696A62",
"i#	c #8D8E7F",
"j#	c #4F5143",
"k#	c #C0C3B5",
"l#	c #A4A88D",
"m#	c #767C5B",
"n#	c #8A8D6B",
"o#	c #969671",
"p#	c #A7AA80",
"q#	c #8B8F6F",
"r#	c #42432F",
"s#	c #242726",
"t#	c #B9BBBC",
"u#	c #717370",
"v#	c #23241E",
"w#	c #64655F",
"x#	c #C4C5BD",
"y#	c #D4D8C7",
"z#	c #EFF4E1",
"A#	c #E6E8D7",
"B#	c #F4F8E6",
"C#	c #ACB196",
"D#	c #898D6C",
"E#	c #ACB290",
"F#	c #ABAF8E",
"G#	c #5D6048",
"H#	c #0F0E0B",
"I#	c #1A1D1A",
"J#	c #B4B5AE",
"K#	c #898986",
"L#	c #3E403C",
"M#	c #96988D",
"N#	c #D6D8CF",
"O#	c #FEFFEF",
"P#	c #C9CDB0",
"Q#	c #989D7B",
"R#	c #73745D",
"S#	c #171914",
"T#	c #12130F",
"U#	c #A1A2A0",
"V#	c #868784",
"W#	c #10100F",
"X#	c #595B54",
"Y#	c #B5B8AA",
"Z#	c #A6A797",
"`#	c #0A0904",
" $	c #B1B1B0",
".$	c #71726A",
"+$	c #010000",
"@$	c #1A1E17",
"#$	c #0C0C09",
"$$	c #262B27",
"                                                                ",
"                                                                ",
"                                        . .                     ",
"                                    + @ # $                     ",
"                        . . . . % & * = - ; > .                 ",
"                    . , ' ) ! ~ { ] ^ / ( _ : <                 ",
"                . [ } | | | 1 2 3 4 5 6 7 8 9 0 a               ",
"          . b c d | | | e f g h i j k l m n o p q r             ",
"      s t u | | | | v w x y z A B C D m E F G H I J .           ",
"    K L | | | | | | M N O P Q R S T U V W X Y Z ` 0  .          ",
"  ..| +.@.#.$.%.&.*.=.-.;.>.,.'.).!.~.{.].^./.(._.:..           ",
"  <.| [.}.|.1.2.3.4.5.6.7.8.9.0.a.b.c.d.e.f.g.h.i.j..           ",
"  k.l.m.n.o.p.q.r.s.t.u.v.w.x.y.z.A.B.C.D.E.F.G.H.I.J.          ",
"  K.L.M.N.O.N.}.P.Q.R.S.T.U.V.W.X.Y.Z.`. +.+++@+#+$+J.          ",
"  %+&+M.*+=+-+;+>+,+'+)+[.!+~+| {+]+^+/+(+_+:+<+[+}+|+          ",
"  1+2+3+*+4+4+5+=+-+6+7+8+9+0+| a+b+c+d+e+f+g+h+i+j+k+          ",
"  l+m+n+o+=+4+4+4+=+p+q+r+s+t+u+v+w+x+y+z+A+B+C+D+E+F+          ",
"  G+H+[.I+J+-+=+=+K+N.M.L+M+| N+O+P+Q+R+S+T+U+V+W+X+Y+          ",
"  Z+`+ @.@+@@@N.p+J+#@$@%@&@*@=@-@;@>@,@'@A+U+)@!@~@{@          ",
"  ]@^@/@(@'+_@:@7+<@o+[@}@|@1@2@3@4@5@6@7@8@9@0@a@b@c@          ",
"  d@e@f@g@h@i@j@k@*+l@'+m@n@o@| p@q@r@s@t@u@v@w@x@y@z@          ",
"  . A@B@C@D@E@F@G@H@I@J@K@L@M@N@O@P@Q@R@S@T@U@V@W@X@.           ",
"  . Y@Z@`@ #.#+#@###$#%#&#*#=#-#;#>#,#'#9@)#!#~#| | {#          ",
"    ]#^#| /#(#_#:#<#[#}#|#1#l.2#3#4#5#6#7#8#9#0#a#| | b#        ",
"      c#d#e#f#| | g#h#i#j#k#`+l#m#n#o#p#q#r#.   s#t#| | u#.     ",
"            v#w#x#y#|  @z#A#B#C#D#E#F#G#H#.       I#J#| | K#    ",
"                . L#M#N#O#n+_#P#Q#R#S#.             T#U#| | V#  ",
"                    . W#X#Y#| Z#[#.                   `# $| .$  ",
"                          +$@$#$                          $$    ",
"                                                                ",
"                                                                ",
"                                                                "};
