/* XPM */
static char * xfv_xpm[] = {
"32 32 371 2",
"  	c None",
". 	c #010200",
"+ 	c #424441",
"@ 	c #4D504C",
"# 	c #474A46",
"$ 	c #444643",
"% 	c #434642",
"& 	c #3E403E",
"* 	c #3E413F",
"= 	c #3F413F",
"- 	c #393A38",
"; 	c #3A3B39",
"> 	c #373836",
", 	c #363836",
"' 	c #3A3C3A",
") 	c #191B18",
"! 	c #000000",
"~ 	c #0D100D",
"{ 	c #ECEDEB",
"] 	c #FFFFFF",
"^ 	c #BEC0BE",
"/ 	c #393B38",
"( 	c #090B09",
"_ 	c #EFF1EE",
": 	c #F3F5F2",
"< 	c #EEF0ED",
"[ 	c #EDEFEC",
"} 	c #E8EBE7",
"| 	c #E9EBE8",
"1 	c #E8EAE7",
"2 	c #F4F5F2",
"3 	c #F4F6F3",
"4 	c #F5F7F4",
"5 	c #40413F",
"6 	c #0F0C12",
"7 	c #050705",
"8 	c #E2E4DF",
"9 	c #DCDEDA",
"0 	c #DBDDD8",
"a 	c #DBDDD9",
"b 	c #DCDED9",
"c 	c #D9DBD8",
"d 	c #D5D7D4",
"e 	c #D6D8D4",
"f 	c #D6D8D5",
"g 	c #D4D6D3",
"h 	c #E3E5E2",
"i 	c #E5E7E2",
"j 	c #4E504D",
"k 	c #030503",
"l 	c #E6E8E5",
"m 	c #E0E2DF",
"n 	c #DBDDDA",
"o 	c #D7D9D4",
"p 	c #D7D9D5",
"q 	c #D1D3D0",
"r 	c #D0D2CF",
"s 	c #CFD1CE",
"t 	c #DFE1DE",
"u 	c #FFFFFE",
"v 	c #F6F8F5",
"w 	c #C3C5C2",
"x 	c #CCCDCB",
"y 	c #363735",
"z 	c #020503",
"A 	c #E5E7E4",
"B 	c #D8DAD7",
"C 	c #D8DAD8",
"D 	c #DADCD9",
"E 	c #D2D4D1",
"F 	c #E3E3E0",
"G 	c #FDFFFC",
"H 	c #A3A3A2",
"I 	c #AAAAA9",
"J 	c #B5B6B4",
"K 	c #B4B6B3",
"L 	c #555754",
"M 	c #FEFFFD",
"N 	c #FCFEFB",
"O 	c #F6F8F4",
"P 	c #FCFEF9",
"Q 	c #6F716E",
"R 	c #ECECE9",
"S 	c #E6E6E3",
"T 	c #E4E5E2",
"U 	c #E5E5E2",
"V 	c #E5E6E3",
"W 	c #E2E3E0",
"X 	c #E3E5E1",
"Y 	c #E6E8E4",
"Z 	c #E7E8E4",
"` 	c #E5E7E3",
" .	c #DEE0DC",
"..	c #EBECE9",
"+.	c #FDFFFB",
"@.	c #FCFDFA",
"#.	c #FBFDFB",
"$.	c #727472",
"%.	c #D3D5D2",
"&.	c #D3D5D3",
"*.	c #DADCD7",
"=.	c #ECECE8",
"-.	c #EFEEEA",
";.	c #CACBC6",
">.	c #AEADAA",
",.	c #C0C1BC",
"'.	c #E4E4E0",
").	c #EDEDE8",
"!.	c #F4F5F0",
"~.	c #FFFFFD",
"{.	c #FAFCF9",
"].	c #707270",
"^.	c #DEE0DB",
"/.	c #D8DAD6",
"(.	c #D8DAD5",
"_.	c #D9DBD7",
":.	c #EDEDE9",
"<.	c #DADBD6",
"[.	c #646563",
"}.	c #595F60",
"|.	c #647079",
"1.	c #5C6161",
"2.	c #4C4D49",
"3.	c #BABBB6",
"4.	c #F8FAF7",
"5.	c #F9FBF8",
"6.	c #6F716F",
"7.	c #D5D7D5",
"8.	c #D4D6D2",
"9.	c #E7E9E5",
"0.	c #C3C3C0",
"a.	c #485051",
"b.	c #909BA6",
"c.	c #A8B9D1",
"d.	c #A6B8CF",
"e.	c #93A7BE",
"f.	c #7087A1",
"g.	c #2C3740",
"h.	c #90908B",
"i.	c #FCFDF9",
"j.	c #F8FAF6",
"k.	c #D7D9D6",
"l.	c #D0D2D0",
"m.	c #E4E6E2",
"n.	c #E1E3DF",
"o.	c #545B5D",
"p.	c #BCC6CE",
"q.	c #D1DCE6",
"r.	c #B8C6D8",
"s.	c #ACBCD1",
"t.	c #9EB0C8",
"u.	c #93A8C5",
"v.	c #7C91AF",
"w.	c #2D3740",
"x.	c #C6C5C0",
"y.	c #FFFFFC",
"z.	c #FAFCF8",
"A.	c #F2F4F1",
"B.	c #F2F4F0",
"C.	c #F1F3EE",
"D.	c #ECEEEB",
"E.	c #9D9E9C",
"F.	c #848A8C",
"G.	c #EEF8FF",
"H.	c #CDD7E3",
"I.	c #B7C5D6",
"J.	c #ABBBCF",
"K.	c #9EB0C7",
"L.	c #93A8C2",
"M.	c #849DBA",
"N.	c #556F8B",
"O.	c #5A6060",
"P.	c #FCFEFA",
"Q.	c #FBFDFA",
"R.	c #F1F3EF",
"S.	c #8A8B88",
"T.	c #ADB0B1",
"U.	c #EDF7FF",
"V.	c #CBD5E2",
"W.	c #B6C3D4",
"X.	c #AABACD",
"Y.	c #9EAFC5",
"Z.	c #94A8C2",
"`.	c #869EBB",
" +	c #617A9B",
".+	c #3C4243",
"++	c #FCFCF5",
"@+	c #FEFFFB",
"#+	c #F8F9F5",
"$+	c #D1D3D1",
"%+	c #CBCDCA",
"&+	c #8C8D89",
"*+	c #B7B8B4",
"=+	c #CBD5E1",
"-+	c #AAB9CD",
";+	c #9EB0C5",
">+	c #879FBC",
",+	c #647D9E",
"'+	c #3D4345",
")+	c #F8F8F3",
"!+	c #E6E9E5",
"~+	c #FCFFFB",
"{+	c #E8E9E6",
"]+	c #989995",
"^+	c #909394",
"/+	c #CBD6E3",
"(+	c #B7C4D5",
"_+	c #ABBACF",
":+	c #9FB1C7",
"<+	c #95AAC4",
"[+	c #88A0BE",
"}+	c #617795",
"|+	c #63635C",
"1+	c #FEFFFA",
"2+	c #FBFDF9",
"3+	c #E7E9E6",
"4+	c #DCDEDB",
"5+	c #D9DBD6",
"6+	c #E0E1DD",
"7+	c #5E6262",
"8+	c #CCD8E4",
"9+	c #D0DAE5",
"0+	c #B7C5D7",
"a+	c #ABBBD0",
"b+	c #9FB2C9",
"c+	c #96ABC7",
"d+	c #88A1C0",
"e+	c #253444",
"f+	c #787872",
"g+	c #6F7270",
"h+	c #F9FAF7",
"i+	c #CCCECB",
"j+	c #CACCC9",
"k+	c #E9E9E6",
"l+	c #AAA9A6",
"m+	c #555B5C",
"n+	c #A7B2BF",
"o+	c #B7C5D8",
"p+	c #ADC1D7",
"q+	c #9EB1CA",
"r+	c #8096B3",
"s+	c #374451",
"t+	c #4D4D4A",
"u+	c #898A85",
"v+	c #A7A8A6",
"w+	c #030603",
"x+	c #E2E4E1",
"y+	c #EDF0EC",
"z+	c #BEC0BB",
"A+	c #585E5F",
"B+	c #6A747D",
"C+	c #66747F",
"D+	c #65727D",
"E+	c #4F5458",
"F+	c #3A3A35",
"G+	c #62625E",
"H+	c #BABAB7",
"I+	c #8A8C88",
"J+	c #9C9E9B",
"K+	c #030604",
"L+	c #FBFCF8",
"M+	c #DDDFDA",
"N+	c #F9FAF6",
"O+	c #CDCEC9",
"P+	c #B3B2AF",
"Q+	c #C7C8C2",
"R+	c #F0F1EC",
"S+	c #646561",
"T+	c #5E605D",
"U+	c #B0B2AE",
"V+	c #8D8F8C",
"W+	c #939593",
"X+	c #737674",
"Y+	c #F0F0ED",
"Z+	c #EFF0ED",
"`+	c #E8E9E5",
" @	c #F7F6F2",
".@	c #FAFAF7",
"+@	c #696B68",
"@@	c #505452",
"#@	c #A9ABAA",
"$@	c #8F918E",
"%@	c #9A9C9A",
"&@	c #757775",
"*@	c #626461",
"=@	c #919391",
"-@	c #A0A29F",
";@	c #3F4141",
">@	c #C8C8C7",
",@	c #50524F",
"'@	c #636562",
")@	c #797B78",
"!@	c #555653",
"~@	c #4D504E",
"{@	c #CED0CD",
"]@	c #E1E3E0",
"^@	c #777774",
"/@	c #4E5250",
"(@	c #A5A7A4",
"_@	c #7B7E7A",
":@	c #040604",
"<@	c #464848",
"[@	c #333532",
"}@	c #CDCDCC",
"|@	c #363635",
"1@	c #838682",
"2@	c #F8F9F6",
"3@	c #1B1D1B",
"4@	c #7B7D7A",
"5@	c #E7E9E4",
"6@	c #E4E6E3",
"7@	c #313330",
"8@	c #40423F",
"9@	c #313130",
"0@	c #7E807D",
"a@	c #414343",
"b@	c #777976",
"c@	c #757875",
"d@	c #040705",
"e@	c #E7EAE6",
"f@	c #2A2C2A",
"g@	c #C2C4C3",
"h@	c #CDCECC",
"i@	c #4E514F",
"j@	c #787875",
"k@	c #7A7C79",
"l@	c #383A38",
"m@	c #5D5F5C",
"n@	c #848683",
"o@	c #BABCBB",
"p@	c #EBEDE9",
"q@	c #070907",
"r@	c #B1B3B1",
"s@	c #3C3D3B",
"t@	c #282827",
"u@	c #C4C6C4",
"v@	c #363835",
"w@	c #C8CAC7",
"x@	c #242423",
"y@	c #585A57",
"z@	c #767876",
"A@	c #0B0D0B",
"B@	c #F5F8F4",
"C@	c #898A86",
"D@	c #C6C8C4",
"E@	c #949693",
"F@	c #626462",
"G@	c #4A4C49",
"H@	c #4B4D4A",
"I@	c #7A7C7A",
"J@	c #101310",
"K@	c #DADBD8",
"L@	c #F3F6F2",
"M@	c #F1F3F0",
"N@	c #BABCBA",
"O@	c #F7F9F6",
"P@	c #EBEEEA",
"Q@	c #F0F2EF",
"R@	c #2C2F2C",
"S@	c #323330",
"T@	c #2F302E",
"U@	c #2E2F2D",
"V@	c #2E2F2C",
"W@	c #2F312F",
"X@	c #2C2D2B",
"Y@	c #2B2C2A",
"Z@	c #2D2E2C",
"`@	c #2A2B29",
" #	c #292A28",
".#	c #373A38",
"+#	c #242622",
"                                                                ",
"                                                                ",
"      . + @ # $ % $ $ & * = - - ; ; > > > > , ' ) !             ",
"      ~ { ] ] ] ] ] ] ] ] ] ] ] ] ] ] ] ] ] ] ] ^ /             ",
"      ( _ ] : < [ [ [ _ < < < } | | | 1 1 2 ] ] 3 4 5 6         ",
"      7 | ] 8 9 0 a a b c c d d e f d d g h ] ] i ] 4 j         ",
"      k l ] m n e o p g g d d d q q q r s t u v w t m x y       ",
"      z A ] t c B B B C c c c c D D D e E F G : H I J K L       ",
"      z A ] ] ] ] ] ] ] ] ] ] ] ] ] ] ] u M N N O P ] ] Q       ",
"      z A ] R S T U V V m m W X Y Z `  .n ..+.@.N #.] ] $.      ",
"      k Y G D d %.&.g d E *.=.-.;.>.,.'.).!.~.N v {.] ] ].      ",
"      k l G ^./.p p (._.0 :.<.[.}.|.1.2.3.] ] 4.v 5.] ] 6.      ",
"      k l G n 7.g d f 8.9.0.a.b.c.d.e.f.g.h.] i.j.5.] ] 6.      ",
"      k l N k.q r l.E m.n.o.p.q.r.s.t.u.v.w.x.y.z.{.] ] 6.      ",
"      k l ] A.B.C.D.< u E.F.G.H.I.J.K.L.M.N.O.] P.Q.] ] 6.      ",
"      k l ] j.B.C.R.4.] S.T.U.V.W.X.Y.Z.`. +.+++@+N ] ] 6.      ",
"      k l #+k.$+r %+_.u &+*+U.=+W.-+;+Z.>+,+'+)+~.z.] ] 6.      ",
"      k !+~+k.E r q {+] ]+^+U./+(+_+:+<+[+}+|+] 1+2+] ] 6.      ",
"      k 3+G 4+*./.d 5+P 6+7+8+9+0+a+b+c+d+e+f+] ] @+] ] g+      ",
"      k 3+h+%.i+i+j+%+k+] l+m+n+o+p+q+r+s+t+u+v+P ] ] ] ].      ",
"      w+3+] 1 h x+x+4+y+] ] z+A+B+C+D+E+F+G+H+I+J+5.] ] $.      ",
"      K+1 L+n f d d d d M+] ] N+O+P+Q+!.R+S+T+U+V+W+] ] X+      ",
"      k h ] {.4 2+u Y+Z+] ] Y `+]  @` ] ] .@+@@@#@$@%@] &@      ",
"      w+A ] *@=@] -@;@k.>@,@'@)@Q.!@~@] ] {@]@^@/@(@)@j+_@      ",
"      :@l ] <@[@}@|@1@2@3@4@5@6@] 7@8@] s 9@m.5.0@a@b@Q.c@      ",
"      d@e@] f ! f@g@] h@! i@j@k@] *@l@] m@n@] ] v o@p@] &@      ",
"      q@p@] r@s@t@k.] u@v@p@h+2@] w@x@y@+@N ] ] ] ] ] ] z@      ",
"      A@B@D C@] D@E@] ]@F@] ] ] ] ] G@H@] ] ] ] ] ] ] ] I@      ",
"      J@K@x+L@] ] M@{.< N@z.v v O@5.P@Q@5.v _ [ [ _ 4 M 4@      ",
"      ! R@l@S@T@U@U@U@V@W@X@Y@Y@X@Z@T@T@Z@X@`@ # #Y@T@.#+#      ",
"                                                                ",
"                                                                "};
